<?xml version="1.0" encoding="UTF-8"?>
<!-- Generator: visioncortex VTracer 0.6.5 -->
<svg version="1.1" xmlns="http://www.w3.org/2000/svg" width="256" height="256">
<path d="M0 0 C84.48 0 168.96 0 256 0 C256 84.48 256 168.96 256 256 C171.52 256 87.04 256 0 256 C0 171.52 0 87.04 0 0 Z " fill="#000000" transform="translate(0,0)"/>
<path d="M0 0 C-1.56 1.73 -3.12 3.45 -4.69 5.18 C-6 7 -6 7 -6 10 C-4.16 11.61 -2.35 13.02 -0.38 14.44 C9.54 21.81 18.9 29.75 27.69 38.44 C28.18 38.92 28.67 39.41 29.18 39.9 C32.56 43.31 35.58 46.51 36.4 51.35 C36.39 52.1 36.38 52.85 36.38 53.62 C36.38 54.38 36.39 55.14 36.4 55.91 C35.9 58.55 35.15 59.42 33 61 C27.64 61.7 27.64 61.7 25 61 C24.12 60.17 23.24 59.34 22.33 58.49 C18.83 55.51 16.15 55.46 11.55 55.62 C10.85 55.63 10.15 55.65 9.42 55.66 C7.2 55.71 4.98 55.79 2.75 55.88 C-20.59 56.68 -20.59 56.68 -30 49 C-30 48.34 -30 47.68 -30 47 C-36.54 52.55 -42.56 58.5 -48.53 64.65 C-49.21 65.34 -49.89 66.03 -50.59 66.75 C-50.89 67.06 -50.89 67.06 -52.43 68.64 C-54 70 -54 70 -56 70 C-56 70.66 -56 71.32 -56 72 C-55.25 72.22 -54.49 72.45 -53.72 72.68 C-48.51 74.53 -43.52 76.81 -38.5 79.12 C-37.38 79.64 -36.27 80.15 -35.12 80.68 C-21.12 87.22 -7.56 94.6 6 102 C6 102.99 6 103.98 6 105 C5.4 105.15 4.8 105.29 4.18 105.44 C-22.2 111.84 -47.8 119.59 -73.19 129.19 C-74.04 129.51 -74.89 129.83 -75.76 130.16 C-83.12 132.98 -90.25 135.92 -97 140 C-98.68 140.71 -100.36 141.42 -102.03 142.13 C-114.3 147.55 -125.78 154.71 -137 162 C-138.01 162.66 -139.03 163.31 -140.07 163.99 C-146.11 167.96 -152.03 172.09 -157.94 176.25 C-158.66 176.76 -159.38 177.27 -160.13 177.79 C-163.11 179.9 -166.01 182.01 -168.82 184.36 C-171 186 -171 186 -174 186 C-169.12 168.37 -156.68 151.61 -146 137 C-145.55 136.38 -145.1 135.76 -144.64 135.12 C-139.41 127.97 -133.73 121.31 -127.67 114.85 C-125.15 112.16 -122.7 109.44 -120.25 106.69 C-117.04 103.1 -113.72 99.68 -110.21 96.38 C-109 95 -109 95 -109 93 C-109.73 92.79 -110.46 92.58 -111.22 92.37 C-120.2 89.81 -129.17 87.2 -138.14 84.58 C-145.75 82.36 -153.37 80.16 -161 78 C-159.38 73.68 -156.08 70.97 -152.75 67.94 C-152.13 67.37 -151.5 66.79 -150.86 66.21 C-144.51 60.45 -137.87 55.13 -131 50 C-130.43 49.57 -129.86 49.14 -129.27 48.7 C-120.53 42.19 -111.48 36.36 -102 31 C-101.29 30.6 -100.59 30.2 -99.86 29.78 C-76.04 16.37 -50.03 7.36 -23.25 2.06 C-22.72 1.96 -22.72 1.96 -20.04 1.42 C-13.29 0.17 -6.86 -0.25 0 0 Z " fill="#A7A7A7" transform="translate(198,33)"/>
<path d="M0 0 C2.08 -0.05 4.17 -0.09 6.25 -0.12 C6.83 -0.14 6.83 -0.14 9.77 -0.2 C12.85 -0.01 14.46 0.3 17 2 C19 4.99 19 6.23 19 10 C15.41 9.66 13.07 8.51 10.12 6.56 C6.47 4.16 3.25 2.98 -1 2 C-0.67 1.34 -0.34 0.68 0 0 Z " fill="#0B0B0B" transform="translate(183,58)"/>
</svg>
